<svg id="BodeaLogo" xmlns="http://www.w3.org/2000/svg" xmlns:xlink="http://www.w3.org/1999/xlink" viewBox="0 0 378.797 113">
  <g id="Paths" transform="translate(0 31.538)">
    <path id="Path_121867" data-name="Path 121867" d="M196,303.1a5.164,5.164,0,0,1,5.183-5.153h13.032a20.67,20.67,0,0,1,7.582,1.344,17.547,17.547,0,0,1,5.945,3.774,17.069,17.069,0,0,1,3.905,5.888,20.252,20.252,0,0,1,1.409,7.686v6.574a12.844,12.844,0,0,1-.832,4.629,15.983,15.983,0,0,1-2.125,3.886,12.658,12.658,0,0,1-2.9,2.83,7.534,7.534,0,0,1-3.216,1.344,12.431,12.431,0,0,1,6.576,4.028,15.586,15.586,0,0,1,2.756,4.771,20.074,20.074,0,0,1,1.119,7.144v6.974a18.575,18.575,0,0,1-1.467,7.49,17.089,17.089,0,0,1-3.994,5.746,17.9,17.9,0,0,1-5.86,3.658A19.275,19.275,0,0,1,216.1,377H199.948A3.936,3.936,0,0,1,196,373.074S196,320.135,196,303.1Zm10.171,4.733v24.792h7.238a12.815,12.815,0,0,0,2.729-.354,9.424,9.424,0,0,0,3.046-1.294,8.308,8.308,0,0,0,2.5-2.561,7.713,7.713,0,0,0,1.033-4.209v-6.716q0-4.945-2.527-7.3a9.147,9.147,0,0,0-6.491-2.357Zm0,35.19v24.2h8.79a8.713,8.713,0,0,0,3.851-.786,8.076,8.076,0,0,0,2.671-2.045,8.616,8.616,0,0,0,1.579-2.75,8.857,8.857,0,0,0,.519-2.907v-6.285a10.5,10.5,0,0,0-.805-4.348,8.354,8.354,0,0,0-2.1-2.907,8.266,8.266,0,0,0-2.93-1.652,10.759,10.759,0,0,0-3.305-.524Z" transform="translate(-196 -296.741)" fill="#54616a"/>
    <path id="Path_121868" data-name="Path 121868" d="M316.79,313.576a18.282,18.282,0,0,1,1.579-7.686,17.993,17.993,0,0,1,4.281-5.915,19.343,19.343,0,0,1,6.289-3.8,21.587,21.587,0,0,1,7.613-1.344,21.352,21.352,0,0,1,7.555,1.344,19.692,19.692,0,0,1,6.32,3.8,17.869,17.869,0,0,1,4.308,5.915,18.294,18.294,0,0,1,1.579,7.686v44.016a17.952,17.952,0,0,1-5.918,13.575,19.547,19.547,0,0,1-6.289,3.774,21.6,21.6,0,0,1-7.613,1.344,20.936,20.936,0,0,1-7.582-1.371,19.732,19.732,0,0,1-6.262-3.832,17.882,17.882,0,0,1-5.86-13.49Zm10.856,43.558a9.907,9.907,0,0,0,.662,3.6,9.345,9.345,0,0,0,1.811,2.973,8.472,8.472,0,0,0,2.787,2,8.563,8.563,0,0,0,3.592.743,9.22,9.22,0,0,0,3.677-.716,8.573,8.573,0,0,0,2.845-1.945,8.851,8.851,0,0,0,1.838-2.888,9.472,9.472,0,0,0,.662-3.543V314.092a10.147,10.147,0,0,0-.662-3.631,9.344,9.344,0,0,0-1.838-3.031,8.883,8.883,0,0,0-2.814-2.056,8.345,8.345,0,0,0-3.592-.77,8.5,8.5,0,0,0-3.65.77,8.9,8.9,0,0,0-2.814,2.056,9.344,9.344,0,0,0-1.838,3.031,10.147,10.147,0,0,0-.662,3.631v43.042Z" transform="translate(-270.039 -294.822)" fill="#54616a"/>
    <path id="Path_121869" data-name="Path 121869" d="M445.94,303.285a5.357,5.357,0,0,1,5.368-5.33l13.376-.015a22.683,22.683,0,0,1,7.756,1.4,17.826,17.826,0,0,1,6.146,3.832,17.106,17.106,0,0,1,4.021,6.088,21.778,21.778,0,0,1,1.436,8.118v40.073a21.7,21.7,0,0,1-1.467,8.2,17.671,17.671,0,0,1-4.048,6.146,17.472,17.472,0,0,1-6.177,3.859A22.013,22.013,0,0,1,464.568,377h-14.44a4.172,4.172,0,0,1-4.188-4.151c0-.181-.043-54.433,0-69.567ZM456.6,367.222h7.342a9.366,9.366,0,0,0,3.851-.77,8.613,8.613,0,0,0,2.93-2.114,9.133,9.133,0,0,0,1.838-3.173,11.986,11.986,0,0,0,.631-3.943v-39.5a10.122,10.122,0,0,0-2.411-7.2,8.983,8.983,0,0,0-6.607-2.688H456.6Z" transform="translate(-349.191 -296.735)" fill="#54616a"/>
    <path id="Path_121870" data-name="Path 121870" d="M572.81,302.145a4.32,4.32,0,0,1,4.331-4.205h20.9a1.546,1.546,0,0,1,1.091.427,1.848,1.848,0,0,1,.461,1.4v6.289a1.743,1.743,0,0,1-.461,1.371,1.61,1.61,0,0,1-1.091.4H583.667v25.108h13.941a2.055,2.055,0,0,1,1.177.37,1.511,1.511,0,0,1,.546,1.344v6.289a1.588,1.588,0,0,1-.546,1.371,1.964,1.964,0,0,1-1.177.4H583.667v24.511H598.1a1.93,1.93,0,0,1,1.149.37,1.411,1.411,0,0,1,.519,1.228v6.4a1.632,1.632,0,0,1-.519,1.371,1.839,1.839,0,0,1-1.149.4h-21.45a3.761,3.761,0,0,1-3.77-3.743c-.016-13.213-.058-57.283-.074-71.1Z" transform="translate(-426.969 -296.735)" fill="#54616a"/>
    <path id="Path_121871" data-name="Path 121871" d="M698.054,375.194a1.3,1.3,0,0,1-1.215-.659,2.92,2.92,0,0,1-.387-1.513V340.563h-17.2v32.575a3.165,3.165,0,0,1-.306,1.456,1.2,1.2,0,0,1-1.188.6h-7.52a1.154,1.154,0,0,1-.995-.57,2.587,2.587,0,0,1-.387-1.486V313.683a17.619,17.619,0,0,1,1.521-7.282,19.2,19.2,0,0,1,10.144-9.935,18.473,18.473,0,0,1,7.3-1.456,18.7,18.7,0,0,1,7.327,1.456,19.128,19.128,0,0,1,10.172,9.935,17.622,17.622,0,0,1,1.521,7.282v59.343a3.586,3.586,0,0,1-.306,1.486,1.217,1.217,0,0,1-1.242.685h-7.242Zm-18.8-44.109h17.2V314.2a10.081,10.081,0,0,0-.635-3.57,9.253,9.253,0,0,0-1.8-2.969,9.039,9.039,0,0,0-2.736-2.056,8.141,8.141,0,0,0-6.913,0,8.581,8.581,0,0,0-2.709,2.056,9.512,9.512,0,0,0-1.769,2.969,9.995,9.995,0,0,0-.635,3.57v16.886Z" transform="translate(-485.844 -294.933)" fill="#54616a"/>
    <path id="Path_121872" data-name="Path 121872" d="M857.28,300.006a2.413,2.413,0,0,1,.43-1.486,1.516,1.516,0,0,1,1.293-.57h7.412a1.525,1.525,0,0,1,1.293.57,2.412,2.412,0,0,1,.43,1.486v74.939a2.507,2.507,0,0,1-.4,1.513,1.533,1.533,0,0,1-1.32.543H859a1.533,1.533,0,0,1-1.32-.543,2.506,2.506,0,0,1-.4-1.513Z" transform="translate(-601.337 -296.741)" fill="#54616a"/>
    <path id="Path_121873" data-name="Path 121873" d="M920.042,373.015a2.908,2.908,0,0,1-.345,1.46,1.329,1.329,0,0,1-1.266.6h-7.814a1.146,1.146,0,0,1-1.006-.57,2.688,2.688,0,0,1-.372-1.486V313.506a17.1,17.1,0,0,1,1.579-7.29,19.23,19.23,0,0,1,4.281-5.946,20.17,20.17,0,0,1,6.262-4,20.506,20.506,0,0,1,15.2,0,20.11,20.11,0,0,1,6.289,4,19.175,19.175,0,0,1,4.281,5.946,17.105,17.105,0,0,1,1.579,7.29V372.9a3.07,3.07,0,0,1-.372,1.487,1.345,1.345,0,0,1-1.293.685h-7.47a1.361,1.361,0,0,1-1.293-.659,3.026,3.026,0,0,1-.372-1.513V314.022a9.693,9.693,0,0,0-.662-3.574,9.292,9.292,0,0,0-1.866-2.973,9.193,9.193,0,0,0-2.845-2.056,8.76,8.76,0,0,0-7.183,0,8.9,8.9,0,0,0-2.814,2.056,9.492,9.492,0,0,0-1.838,2.973,9.688,9.688,0,0,0-.662,3.574v58.992Z" transform="translate(-633.187 -294.81)" fill="#54616a"/>
    <path id="Path_121874" data-name="Path 121874" d="M1047.332,360.617a9.357,9.357,0,0,0,1.838,3,8.8,8.8,0,0,0,2.845,2.056,8.624,8.624,0,0,0,3.677.77,8.5,8.5,0,0,0,3.65-.77,8.615,8.615,0,0,0,2.787-2.056,9.262,9.262,0,0,0,1.781-3,10.33,10.33,0,0,0,.631-3.6V351.3a2.831,2.831,0,0,1,.371-1.744,1.483,1.483,0,0,1,1.177-.427h6.951a1.847,1.847,0,0,1,1.293.4,2.3,2.3,0,0,1,.43,1.656v6.346a19.2,19.2,0,0,1-1.494,7.686,17.54,17.54,0,0,1-4.106,5.915,18.4,18.4,0,0,1-6.119,3.8,20.742,20.742,0,0,1-7.47,1.344,21.518,21.518,0,0,1-7.613-1.344,19.236,19.236,0,0,1-6.289-3.8,18.033,18.033,0,0,1-4.281-5.915,18.3,18.3,0,0,1-1.579-7.686V313.57a18.342,18.342,0,0,1,5.631-13.347,19.033,19.033,0,0,1,6.262-3.974,21.267,21.267,0,0,1,7.872-1.429,19.627,19.627,0,0,1,8.1,1.571,17.255,17.255,0,0,1,5.887,4.228,18.3,18.3,0,0,1,3.619,6.088,20.743,20.743,0,0,1,1.235,7.09v4.744a3.5,3.5,0,0,1-.345,1.829,1.479,1.479,0,0,1-1.32.516h-6.893a1.4,1.4,0,0,1-1.293-.516,3.3,3.3,0,0,1-.317-1.656v-4.629a10.753,10.753,0,0,0-.6-3.6,9.486,9.486,0,0,0-1.723-3.031,8.3,8.3,0,0,0-2.7-2.087,7.928,7.928,0,0,0-3.534-.77,8.8,8.8,0,0,0-6.491,2.773,9.073,9.073,0,0,0-1.866,3,9.923,9.923,0,0,0-.662,3.6v43.042a9.928,9.928,0,0,0,.662,3.6Z" transform="translate(-710.769 -294.816)" fill="#54616a"/>
    <path id="Path_121875" data-name="Path 121875" d="M1146.044,477.479a1.988,1.988,0,0,1,.518-1.513,1.709,1.709,0,0,1,1.208-.485h7.64a1.441,1.441,0,0,1,1.35.628,2.761,2.761,0,0,1,.372,1.429v6.689a1.837,1.837,0,0,1-.546,1.486,1.686,1.686,0,0,1-1.065.458h-7.814a2.019,2.019,0,0,1-1.064-.4,1.652,1.652,0,0,1-.6-1.486v-6.8Z" transform="translate(-778.336 -405.905)" fill="#54616a"/>
  </g>
  <path id="path" d="M429.4-.086" transform="translate(-263.203 0.086)" fill="none" stroke="#707070" stroke-width="1"/>
  <g id="shape" transform="translate(153.521 0.033)" clip-path="url(#clip-path)">
    <path id="path-2" data-name="path" d="M13.953,0h5.188a1.726,1.726,0,0,1,1.5,2.586L10.517,20.117a4.162,4.162,0,0,1-3.6,2.076H1.734a1.723,1.723,0,0,1-1.5-2.584L10.424,2.028A4.077,4.077,0,0,1,13.953,0" transform="translate(0)" fill="#35b28c"/>
  </g>
</svg>
