<svg id="BodeaLogo" xmlns="http://www.w3.org/2000/svg" xmlns:xlink="http://www.w3.org/1999/xlink" width="258.12" height="77" viewBox="0 0 258.12 77">
  <defs>
    <clipPath id="clip-path">
      <rect id="rec" width="14.227" height="15.122" fill="none"/>
    </clipPath>
  </defs>
  <g id="Paths" transform="translate(0 21.49)">
    <path id="Path_121867" data-name="Path 121867" d="M196,301.458a3.519,3.519,0,0,1,3.532-3.511h8.88a14.083,14.083,0,0,1,5.166.916,11.956,11.956,0,0,1,4.051,2.572,11.631,11.631,0,0,1,2.661,4.012,13.8,13.8,0,0,1,.96,5.237v4.48a8.753,8.753,0,0,1-.567,3.154,10.891,10.891,0,0,1-1.448,2.648,8.626,8.626,0,0,1-1.976,1.928,5.133,5.133,0,0,1-2.191.916,8.47,8.47,0,0,1,4.481,2.745,10.62,10.62,0,0,1,1.878,3.251,13.678,13.678,0,0,1,.762,4.868v4.752a12.657,12.657,0,0,1-1,5.1,11.645,11.645,0,0,1-2.722,3.915,12.2,12.2,0,0,1-3.993,2.493,13.134,13.134,0,0,1-4.779.877H198.69a2.682,2.682,0,0,1-2.69-2.675S196,313.066,196,301.458Zm6.931,3.225v16.893h4.932a8.731,8.731,0,0,0,1.86-.241,6.422,6.422,0,0,0,2.076-.882,5.661,5.661,0,0,0,1.7-1.745,5.255,5.255,0,0,0,.7-2.868v-4.576a6.5,6.5,0,0,0-1.722-4.974,6.233,6.233,0,0,0-4.423-1.606Zm0,23.979v16.49h5.99a5.936,5.936,0,0,0,2.624-.536,5.5,5.5,0,0,0,1.82-1.393,5.871,5.871,0,0,0,1.076-1.874,6.036,6.036,0,0,0,.354-1.981v-4.283a7.155,7.155,0,0,0-.549-2.963,5.692,5.692,0,0,0-1.431-1.981,5.633,5.633,0,0,0-2-1.126,7.332,7.332,0,0,0-2.252-.357Z" transform="translate(-196 -297.124)" fill="#fff"/>
    <path id="Path_121868" data-name="Path 121868" d="M316.789,307.6a12.458,12.458,0,0,1,1.076-5.237,12.261,12.261,0,0,1,2.917-4.031,13.18,13.18,0,0,1,4.285-2.589,14.709,14.709,0,0,1,5.188-.916,14.549,14.549,0,0,1,5.148.916,13.418,13.418,0,0,1,4.307,2.589,12.176,12.176,0,0,1,2.936,4.031,12.465,12.465,0,0,1,1.076,5.237V337.6a12.233,12.233,0,0,1-4.033,9.25,13.319,13.319,0,0,1-4.285,2.572,14.719,14.719,0,0,1-5.188.916,14.266,14.266,0,0,1-5.166-.934,13.446,13.446,0,0,1-4.267-2.611,12.185,12.185,0,0,1-3.993-9.192Zm7.4,29.681a6.751,6.751,0,0,0,.451,2.453,6.367,6.367,0,0,0,1.234,2.026,5.773,5.773,0,0,0,1.9,1.363,5.835,5.835,0,0,0,2.448.506,6.282,6.282,0,0,0,2.506-.488,5.842,5.842,0,0,0,1.939-1.325,6.03,6.03,0,0,0,1.252-1.968,6.456,6.456,0,0,0,.451-2.414V307.956a6.913,6.913,0,0,0-.451-2.474,6.366,6.366,0,0,0-1.252-2.065,6.053,6.053,0,0,0-1.917-1.4,5.687,5.687,0,0,0-2.448-.525,5.792,5.792,0,0,0-2.487.525,6.065,6.065,0,0,0-1.918,1.4,6.367,6.367,0,0,0-1.252,2.065,6.914,6.914,0,0,0-.451,2.474v29.329Z" transform="translate(-284.933 -294.824)" fill="#fff"/>
    <path id="Path_121869" data-name="Path 121869" d="M445.934,301.582a3.65,3.65,0,0,1,3.658-3.632l9.115-.01a15.457,15.457,0,0,1,5.285.954,12.148,12.148,0,0,1,4.188,2.611,11.656,11.656,0,0,1,2.74,4.148,14.84,14.84,0,0,1,.978,5.532v27.306a14.787,14.787,0,0,1-1,5.588,12.041,12.041,0,0,1-2.758,4.188,11.905,11.905,0,0,1-4.209,2.63,15,15,0,0,1-5.3.916h-9.84a2.843,2.843,0,0,1-2.854-2.829c0-.123-.029-37.091,0-47.4Zm7.264,43.567h5a6.383,6.383,0,0,0,2.624-.525,5.87,5.87,0,0,0,2-1.44,6.224,6.224,0,0,0,1.252-2.162,8.167,8.167,0,0,0,.43-2.687V311.42a6.9,6.9,0,0,0-1.643-4.906,6.121,6.121,0,0,0-4.5-1.832H453.2Z" transform="translate(-380.008 -297.119)" fill="#fff"/>
    <path id="Path_121870" data-name="Path 121870" d="M572.809,300.805a2.944,2.944,0,0,1,2.951-2.865H590a1.053,1.053,0,0,1,.743.291,1.259,1.259,0,0,1,.314.954v4.285a1.188,1.188,0,0,1-.314.934,1.1,1.1,0,0,1-.743.273h-9.795v17.109h9.5a1.4,1.4,0,0,1,.8.252,1.03,1.03,0,0,1,.372.916v4.285a1.082,1.082,0,0,1-.372.934,1.338,1.338,0,0,1-.8.273h-9.5v16.7h9.835a1.315,1.315,0,0,1,.783.252.961.961,0,0,1,.354.837V350.6a1.112,1.112,0,0,1-.354.934,1.253,1.253,0,0,1-.783.273H575.425a2.563,2.563,0,0,1-2.569-2.551c-.011-9-.039-39.033-.05-48.448Z" transform="translate(-473.431 -297.119)" fill="#fff"/>
    <path id="Path_121871" data-name="Path 121871" d="M688.751,349.648a.886.886,0,0,1-.828-.449,1.989,1.989,0,0,1-.264-1.031V326.05h-11.72v22.2a2.156,2.156,0,0,1-.209.992.818.818,0,0,1-.809.409H669.8a.786.786,0,0,1-.678-.388,1.763,1.763,0,0,1-.264-1.013V307.734a12.006,12.006,0,0,1,1.036-4.962A13.083,13.083,0,0,1,676.8,296a12.588,12.588,0,0,1,4.974-.992,12.743,12.743,0,0,1,4.993.992,13.034,13.034,0,0,1,6.931,6.77,12.007,12.007,0,0,1,1.036,4.962v40.437a2.443,2.443,0,0,1-.208,1.013.829.829,0,0,1-.846.467h-4.935Zm-12.81-30.056h11.72V308.086a6.869,6.869,0,0,0-.433-2.433A6.3,6.3,0,0,0,686,303.63a6.158,6.158,0,0,0-1.864-1.4,5.547,5.547,0,0,0-4.711,0,5.847,5.847,0,0,0-1.846,1.4,6.482,6.482,0,0,0-1.205,2.023,6.812,6.812,0,0,0-.433,2.433v11.506Z" transform="translate(-544.149 -294.957)" fill="#fff"/>
    <path id="Path_121872" data-name="Path 121872" d="M857.279,299.35a1.644,1.644,0,0,1,.293-1.013,1.033,1.033,0,0,1,.881-.388H863.5a1.039,1.039,0,0,1,.881.388,1.644,1.644,0,0,1,.293,1.013v51.064a1.708,1.708,0,0,1-.273,1.031,1.045,1.045,0,0,1-.9.37h-5.055a1.045,1.045,0,0,1-.9-.37,1.707,1.707,0,0,1-.273-1.031Z" transform="translate(-682.877 -297.125)" fill="#fff"/>
    <path id="Path_121873" data-name="Path 121873" d="M916.6,348.1a1.982,1.982,0,0,1-.235.995.906.906,0,0,1-.863.409h-5.325a.781.781,0,0,1-.686-.388,1.832,1.832,0,0,1-.253-1.013V307.549a11.651,11.651,0,0,1,1.076-4.967,13.1,13.1,0,0,1,2.917-4.052A13.743,13.743,0,0,1,917.5,295.8a13.973,13.973,0,0,1,10.357,0,13.7,13.7,0,0,1,4.285,2.726,13.067,13.067,0,0,1,2.917,4.052,11.655,11.655,0,0,1,1.076,4.967v40.471a2.092,2.092,0,0,1-.253,1.013.916.916,0,0,1-.881.467h-5.09a.927.927,0,0,1-.881-.449,2.061,2.061,0,0,1-.253-1.031V307.9a6.6,6.6,0,0,0-.451-2.435,6.332,6.332,0,0,0-1.272-2.026,6.264,6.264,0,0,0-1.939-1.4,5.969,5.969,0,0,0-4.895,0,6.065,6.065,0,0,0-1.918,1.4,6.469,6.469,0,0,0-1.252,2.026,6.6,6.6,0,0,0-.451,2.435v40.2Z" transform="translate(-721.134 -294.81)" fill="#fff"/>
    <path id="Path_121874" data-name="Path 121874" d="M1043.661,339.653a6.371,6.371,0,0,0,1.252,2.044,5.993,5.993,0,0,0,1.939,1.4,5.876,5.876,0,0,0,2.505.525,5.793,5.793,0,0,0,2.487-.525,5.869,5.869,0,0,0,1.9-1.4,6.306,6.306,0,0,0,1.214-2.044,7.042,7.042,0,0,0,.43-2.453v-3.9a1.928,1.928,0,0,1,.253-1.188,1.011,1.011,0,0,1,.8-.291h4.736a1.259,1.259,0,0,1,.881.273,1.567,1.567,0,0,1,.293,1.128v4.324a13.083,13.083,0,0,1-1.018,5.237,11.95,11.95,0,0,1-2.8,4.031,12.537,12.537,0,0,1-4.17,2.589,14.133,14.133,0,0,1-5.09.916,14.662,14.662,0,0,1-5.187-.916,13.106,13.106,0,0,1-4.285-2.589,12.285,12.285,0,0,1-2.917-4.031,12.468,12.468,0,0,1-1.076-5.237V307.6a12.5,12.5,0,0,1,3.837-9.095,12.967,12.967,0,0,1,4.267-2.708,14.491,14.491,0,0,1,5.364-.974,13.374,13.374,0,0,1,5.519,1.07,11.758,11.758,0,0,1,4.011,2.881,12.472,12.472,0,0,1,2.466,4.148,14.134,14.134,0,0,1,.842,4.831v3.233a2.385,2.385,0,0,1-.235,1.246,1.008,1.008,0,0,1-.9.352h-4.7a.954.954,0,0,1-.881-.352,2.249,2.249,0,0,1-.216-1.128v-3.154a7.328,7.328,0,0,0-.409-2.453,6.466,6.466,0,0,0-1.174-2.065,5.657,5.657,0,0,0-1.84-1.422,5.4,5.4,0,0,0-2.408-.525,6,6,0,0,0-4.423,1.89,6.182,6.182,0,0,0-1.271,2.044,6.763,6.763,0,0,0-.451,2.453V337.2a6.762,6.762,0,0,0,.451,2.453Z" transform="translate(-814.325 -294.816)" fill="#fff"/>
    <path id="Path_121875" data-name="Path 121875" d="M1146.04,476.84a1.355,1.355,0,0,1,.353-1.031,1.164,1.164,0,0,1,.823-.33h5.206a.982.982,0,0,1,.92.428,1.88,1.88,0,0,1,.253.974v4.558a1.251,1.251,0,0,1-.372,1.013,1.149,1.149,0,0,1-.726.312h-5.325a1.375,1.375,0,0,1-.725-.273,1.126,1.126,0,0,1-.409-1.013v-4.634Z" transform="translate(-895.481 -428.069)" fill="#fff"/>
  </g>
  <path id="path" d="M429.4-.086" transform="translate(-316.152 0.086)" fill="none" stroke="#707070" stroke-width="1"/>
  <g id="shape" transform="translate(104.61 0.022)" clip-path="url(#clip-path)">
    <path id="path-2" data-name="path" d="M9.509,0h3.535a1.176,1.176,0,0,1,1.022,1.762l-6.9,11.946a2.836,2.836,0,0,1-2.453,1.415H1.183A1.174,1.174,0,0,1,.161,13.362L7.1,1.382A2.778,2.778,0,0,1,9.509,0" transform="translate(-0.001 0)" fill="#fff"/>
  </g>
</svg>
